<?xml version="1.0" encoding="UTF-8" standalone="no"?>
<!DOCTYPE svg PUBLIC "-//W3C//DTD SVG 1.1//EN"
 "http://www.w3.org/Graphics/SVG/1.1/DTD/svg11.dtd">
<!-- Generated by graphviz version 2.43.0 (0)
 -->
<!-- Title: G Pages: 1 -->
<svg width="1918pt" height="836pt"
 viewBox="0.00 0.00 1917.99 836.00" xmlns="http://www.w3.org/2000/svg" xmlns:xlink="http://www.w3.org/1999/xlink">
<g id="graph0" class="graph" transform="scale(1 1) rotate(0) translate(4 832)">
<title>G</title>
<polygon fill="white" stroke="transparent" points="-4,4 -4,-832 1913.99,-832 1913.99,4 -4,4"/>
<!-- Timer60Hz -->
<g id="node1" class="node">
<title>Timer60Hz</title>
<ellipse fill="none" stroke="black" cx="1480" cy="-810" rx="62.29" ry="18"/>
<text text-anchor="middle" x="1480" y="-806.3" font-family="Times,serif" font-size="14.00">Timer60Hz</text>
</g>
<!-- T1 -->
<g id="node29" class="node">
<title>T1</title>
<ellipse fill="none" stroke="black" cx="1661" cy="-738" rx="27" ry="18"/>
<text text-anchor="middle" x="1661" y="-734.3" font-family="Times,serif" font-size="14.00">T1</text>
</g>
<!-- Timer60Hz&#45;&gt;T1 -->
<g id="edge47" class="edge">
<title>Timer60Hz&#45;&gt;T1</title>
<path fill="none" stroke="black" d="M1515.76,-795.17C1548.58,-782.48 1596.77,-763.84 1628.51,-751.56"/>
<polygon fill="black" stroke="black" points="1630.14,-754.69 1638.2,-747.82 1627.61,-748.16 1630.14,-754.69"/>
</g>
<!-- T2 -->
<g id="node30" class="node">
<title>T2</title>
<ellipse fill="none" stroke="black" cx="1193" cy="-594" rx="27" ry="18"/>
<text text-anchor="middle" x="1193" y="-590.3" font-family="Times,serif" font-size="14.00">T2</text>
</g>
<!-- Timer60Hz&#45;&gt;T2 -->
<g id="edge50" class="edge">
<title>Timer60Hz&#45;&gt;T2</title>
<path fill="none" stroke="black" d="M1420.63,-804.2C1347.7,-794.75 1226.8,-766.77 1171,-684 1158,-664.72 1167,-638.46 1177.13,-619.47"/>
<polygon fill="black" stroke="black" points="1180.17,-621.21 1182.1,-610.79 1174.09,-617.73 1180.17,-621.21"/>
</g>
<!-- T3 -->
<g id="node31" class="node">
<title>T3</title>
<ellipse fill="none" stroke="black" cx="1691" cy="-594" rx="27" ry="18"/>
<text text-anchor="middle" x="1691" y="-590.3" font-family="Times,serif" font-size="14.00">T3</text>
</g>
<!-- Timer60Hz&#45;&gt;T3 -->
<g id="edge53" class="edge">
<title>Timer60Hz&#45;&gt;T3</title>
<path fill="none" stroke="black" d="M1537.64,-802.91C1595.1,-795.5 1677.51,-780.82 1697,-756 1727.34,-717.35 1713.22,-655.94 1701.37,-621.2"/>
<polygon fill="black" stroke="black" points="1704.64,-619.97 1697.97,-611.74 1698.06,-622.33 1704.64,-619.97"/>
</g>
<!-- T4 -->
<g id="node32" class="node">
<title>T4</title>
<ellipse fill="none" stroke="black" cx="1475" cy="-594" rx="27" ry="18"/>
<text text-anchor="middle" x="1475" y="-590.3" font-family="Times,serif" font-size="14.00">T4</text>
</g>
<!-- Timer60Hz&#45;&gt;T4 -->
<g id="edge56" class="edge">
<title>Timer60Hz&#45;&gt;T4</title>
<path fill="none" stroke="black" d="M1479.6,-791.85C1478.73,-754.83 1476.69,-667.18 1475.64,-622.39"/>
<polygon fill="black" stroke="black" points="1479.14,-622.15 1475.4,-612.23 1472.14,-622.31 1479.14,-622.15"/>
</g>
<!-- T5 -->
<g id="node33" class="node">
<title>T5</title>
<ellipse fill="none" stroke="black" cx="1398" cy="-594" rx="27" ry="18"/>
<text text-anchor="middle" x="1398" y="-590.3" font-family="Times,serif" font-size="14.00">T5</text>
</g>
<!-- Timer60Hz&#45;&gt;T5 -->
<g id="edge59" class="edge">
<title>Timer60Hz&#45;&gt;T5</title>
<path fill="none" stroke="black" d="M1450.8,-794.07C1415.75,-774.31 1358.74,-735.82 1335,-684 1328.33,-669.45 1328.25,-662.51 1335,-648 1342.06,-632.84 1355.82,-620.47 1368.69,-611.5"/>
<polygon fill="black" stroke="black" points="1370.9,-614.24 1377.36,-605.84 1367.08,-608.37 1370.9,-614.24"/>
</g>
<!-- Platform -->
<g id="node2" class="node">
<title>Platform</title>
<ellipse fill="none" stroke="black" cx="1102" cy="-450" rx="51.19" ry="18"/>
<text text-anchor="middle" x="1102" y="-446.3" font-family="Times,serif" font-size="14.00">Platform</text>
</g>
<!-- Platform_CPM1 -->
<g id="node3" class="node">
<title>Platform_CPM1</title>
<ellipse fill="none" stroke="black" cx="1050" cy="-378" rx="83.69" ry="18"/>
<text text-anchor="middle" x="1050" y="-374.3" font-family="Times,serif" font-size="14.00">Platform_CPM1</text>
</g>
<!-- Platform&#45;&gt;Platform_CPM1 -->
<g id="edge9" class="edge">
<title>Platform&#45;&gt;Platform_CPM1</title>
<path fill="none" stroke="black" d="M1084.14,-432.76C1077.02,-424.44 1069.1,-414.1 1062.58,-404.73"/>
<polygon fill="black" stroke="black" points="1065.29,-402.49 1056.82,-396.12 1059.47,-406.38 1065.29,-402.49"/>
</g>
<!-- Platform&#45;&gt;Platform_CPM1 -->
<g id="edge10" class="edge">
<title>Platform&#45;&gt;Platform_CPM1</title>
<path fill="none" stroke="black" d="M1095.29,-432.05C1089.87,-423.54 1082.29,-413.07 1074.82,-403.68"/>
<polygon fill="black" stroke="black" points="1077.39,-401.29 1068.33,-395.79 1071.98,-405.74 1077.39,-401.29"/>
</g>
<!-- Platform_CPM2 -->
<g id="node8" class="node">
<title>Platform_CPM2</title>
<ellipse fill="none" stroke="black" cx="254" cy="-378" rx="83.69" ry="18"/>
<text text-anchor="middle" x="254" y="-374.3" font-family="Times,serif" font-size="14.00">Platform_CPM2</text>
</g>
<!-- Platform&#45;&gt;Platform_CPM2 -->
<g id="edge19" class="edge">
<title>Platform&#45;&gt;Platform_CPM2</title>
<path fill="none" stroke="black" d="M1052.52,-445.19C913.19,-434.03 516.63,-401.33 340.29,-386.48"/>
<polygon fill="black" stroke="black" points="340.53,-382.99 330.27,-385.64 339.94,-389.97 340.53,-382.99"/>
</g>
<!-- Platform&#45;&gt;Platform_CPM2 -->
<g id="edge20" class="edge">
<title>Platform&#45;&gt;Platform_CPM2</title>
<path fill="none" stroke="black" d="M1052.75,-444.65C913.89,-432.85 518.28,-400.17 341.33,-385.86"/>
<polygon fill="black" stroke="black" points="341.52,-382.36 331.27,-385.05 340.96,-389.34 341.52,-382.36"/>
</g>
<!-- Platform_MainBus -->
<g id="node13" class="node">
<title>Platform_MainBus</title>
<ellipse fill="none" stroke="black" cx="1179" cy="-162" rx="96.68" ry="18"/>
<text text-anchor="middle" x="1179" y="-158.3" font-family="Times,serif" font-size="14.00">Platform_MainBus</text>
</g>
<!-- Platform&#45;&gt;Platform_MainBus -->
<g id="edge21" class="edge">
<title>Platform&#45;&gt;Platform_MainBus</title>
<path fill="none" stroke="black" d="M1113.41,-432.22C1132.91,-409.8 1170.84,-367.79 1190,-324 1209.36,-279.76 1214.96,-262.53 1202,-216 1199.36,-206.52 1194.52,-197.04 1189.79,-188.78"/>
<polygon fill="black" stroke="black" points="1192.73,-186.87 1184.64,-180.03 1186.7,-190.42 1192.73,-186.87"/>
</g>
<!-- Platform&#45;&gt;Platform_MainBus -->
<g id="edge22" class="edge">
<title>Platform&#45;&gt;Platform_MainBus</title>
<path fill="none" stroke="black" d="M1124.04,-433.73C1149.16,-411.73 1188.4,-368.79 1208,-324 1227.36,-279.76 1232.96,-262.53 1220,-216 1217.3,-206.32 1212.31,-196.64 1206.61,-188.25"/>
<polygon fill="black" stroke="black" points="1209.27,-185.96 1200.49,-180.03 1203.66,-190.14 1209.27,-185.96"/>
</g>
<!-- Platform_SDRAM -->
<g id="node14" class="node">
<title>Platform_SDRAM</title>
<ellipse fill="none" stroke="black" cx="1345" cy="-90" rx="91.78" ry="18"/>
<text text-anchor="middle" x="1345" y="-86.3" font-family="Times,serif" font-size="14.00">Platform_SDRAM</text>
</g>
<!-- Platform&#45;&gt;Platform_SDRAM -->
<g id="edge23" class="edge">
<title>Platform&#45;&gt;Platform_SDRAM</title>
<path fill="none" stroke="black" d="M1143.35,-439.24C1202.56,-423.33 1304,-385.38 1304,-307 1304,-307 1304,-307 1304,-233 1304,-191.86 1316.94,-145.61 1328.68,-117.4"/>
<polygon fill="black" stroke="black" points="1331.9,-118.77 1332.76,-108.21 1325.5,-115.93 1331.9,-118.77"/>
</g>
<!-- Platform&#45;&gt;Platform_SDRAM -->
<g id="edge24" class="edge">
<title>Platform&#45;&gt;Platform_SDRAM</title>
<path fill="none" stroke="black" d="M1147.03,-441.2C1211.51,-426.57 1322,-388.8 1322,-307 1322,-307 1322,-307 1322,-233 1322,-192.22 1334.72,-146.42 1341.86,-118.14"/>
<polygon fill="black" stroke="black" points="1345.32,-118.75 1344.29,-108.21 1338.52,-117.09 1345.32,-118.75"/>
</g>
<!-- Platform_CPM1_core1 -->
<g id="node4" class="node">
<title>Platform_CPM1_core1</title>
<ellipse fill="none" stroke="black" cx="803" cy="-306" rx="114.28" ry="18"/>
<text text-anchor="middle" x="803" y="-302.3" font-family="Times,serif" font-size="14.00">Platform_CPM1_core1</text>
</g>
<!-- Platform_CPM1&#45;&gt;Platform_CPM1_core1 -->
<g id="edge1" class="edge">
<title>Platform_CPM1&#45;&gt;Platform_CPM1_core1</title>
<path fill="none" stroke="black" d="M998.13,-363.83C958.15,-352.94 902.96,-337.36 861.43,-325.26"/>
<polygon fill="black" stroke="black" points="862.31,-321.87 851.73,-322.43 860.34,-328.59 862.31,-321.87"/>
</g>
<!-- Platform_CPM1&#45;&gt;Platform_CPM1_core1 -->
<g id="edge2" class="edge">
<title>Platform_CPM1&#45;&gt;Platform_CPM1_core1</title>
<path fill="none" stroke="black" d="M1005.28,-362.75C967.6,-351.66 913.25,-336.22 870.34,-324.4"/>
<polygon fill="black" stroke="black" points="871.1,-320.98 860.53,-321.71 869.25,-327.73 871.1,-320.98"/>
</g>
<!-- Platform_CPM1_core2 -->
<g id="node5" class="node">
<title>Platform_CPM1_core2</title>
<ellipse fill="none" stroke="black" cx="1050" cy="-306" rx="114.28" ry="18"/>
<text text-anchor="middle" x="1050" y="-302.3" font-family="Times,serif" font-size="14.00">Platform_CPM1_core2</text>
</g>
<!-- Platform_CPM1&#45;&gt;Platform_CPM1_core2 -->
<g id="edge3" class="edge">
<title>Platform_CPM1&#45;&gt;Platform_CPM1_core2</title>
<path fill="none" stroke="black" d="M1044.08,-359.7C1043.29,-351.98 1043.06,-342.71 1043.4,-334.11"/>
<polygon fill="black" stroke="black" points="1046.9,-334.32 1044.1,-324.1 1039.92,-333.84 1046.9,-334.32"/>
</g>
<!-- Platform_CPM1&#45;&gt;Platform_CPM1_core2 -->
<g id="edge4" class="edge">
<title>Platform_CPM1&#45;&gt;Platform_CPM1_core2</title>
<path fill="none" stroke="black" d="M1055.92,-359.7C1056.71,-351.98 1056.94,-342.71 1056.6,-334.11"/>
<polygon fill="black" stroke="black" points="1060.08,-333.84 1055.9,-324.1 1053.1,-334.32 1060.08,-333.84"/>
</g>
<!-- Platform_CPM1_OCM1 -->
<g id="node6" class="node">
<title>Platform_CPM1_OCM1</title>
<ellipse fill="none" stroke="black" cx="652" cy="-162" rx="117.78" ry="18"/>
<text text-anchor="middle" x="652" y="-158.3" font-family="Times,serif" font-size="14.00">Platform_CPM1_OCM1</text>
</g>
<!-- Platform_CPM1&#45;&gt;Platform_CPM1_OCM1 -->
<g id="edge5" class="edge">
<title>Platform_CPM1&#45;&gt;Platform_CPM1_OCM1</title>
<path fill="none" stroke="black" d="M966.3,-376.26C867.44,-373.64 711.45,-363.26 671,-324 635.05,-289.11 635.37,-225.76 641.98,-189.8"/>
<polygon fill="black" stroke="black" points="645.41,-190.52 644.1,-180.01 638.57,-189.05 645.41,-190.52"/>
</g>
<!-- Platform_CPM1&#45;&gt;Platform_CPM1_OCM1 -->
<g id="edge6" class="edge">
<title>Platform_CPM1&#45;&gt;Platform_CPM1_OCM1</title>
<path fill="none" stroke="black" d="M966.69,-375.89C872.62,-372.73 727.77,-361.62 689,-324 653.21,-289.26 653.37,-226.3 654.07,-190.27"/>
<polygon fill="black" stroke="black" points="657.57,-190.08 654.26,-180.01 650.58,-189.94 657.57,-190.08"/>
</g>
<!-- Platform_CPM1_CPM1AXI -->
<g id="node7" class="node">
<title>Platform_CPM1_CPM1AXI</title>
<ellipse fill="none" stroke="black" cx="1069" cy="-234" rx="132.68" ry="18"/>
<text text-anchor="middle" x="1069" y="-230.3" font-family="Times,serif" font-size="14.00">Platform_CPM1_CPM1AXI</text>
</g>
<!-- Platform_CPM1&#45;&gt;Platform_CPM1_CPM1AXI -->
<g id="edge7" class="edge">
<title>Platform_CPM1&#45;&gt;Platform_CPM1_CPM1AXI</title>
<path fill="none" stroke="black" d="M1106.14,-364.5C1127.92,-356.74 1150.71,-344.2 1164,-324 1172.79,-310.63 1172.36,-301.64 1164,-288 1155.23,-273.69 1141.25,-263.09 1126.66,-255.3"/>
<polygon fill="black" stroke="black" points="1128.05,-252.09 1117.53,-250.81 1124.96,-258.37 1128.05,-252.09"/>
</g>
<!-- Platform_CPM1&#45;&gt;Platform_CPM1_CPM1AXI -->
<g id="edge8" class="edge">
<title>Platform_CPM1&#45;&gt;Platform_CPM1_CPM1AXI</title>
<path fill="none" stroke="black" d="M1115.98,-366.71C1141.22,-359.19 1167.37,-346.24 1182,-324 1190.79,-310.63 1190.36,-301.64 1182,-288 1172.8,-272.98 1157.85,-262.05 1141.77,-254.16"/>
<polygon fill="black" stroke="black" points="1142.76,-250.77 1132.2,-249.86 1139.89,-257.15 1142.76,-250.77"/>
</g>
<!-- Platform_CPM1_core1&#45;&gt;Platform_CPM1_CPM1AXI -->
<g id="edge25" class="edge">
<title>Platform_CPM1_core1&#45;&gt;Platform_CPM1_CPM1AXI</title>
<path fill="none" stroke="black" d="M859.09,-290.24C900.61,-279.31 957.36,-264.38 1001.39,-252.79"/>
<polygon fill="black" stroke="black" points="1002.37,-256.15 1011.15,-250.22 1000.59,-249.38 1002.37,-256.15"/>
</g>
<!-- Platform_CPM1_core2&#45;&gt;Platform_CPM1_CPM1AXI -->
<g id="edge26" class="edge">
<title>Platform_CPM1_core2&#45;&gt;Platform_CPM1_CPM1AXI</title>
<path fill="none" stroke="black" d="M1054.7,-287.7C1056.81,-279.9 1059.36,-270.51 1061.72,-261.83"/>
<polygon fill="black" stroke="black" points="1065.12,-262.67 1064.36,-252.1 1058.36,-260.84 1065.12,-262.67"/>
</g>
<!-- Platform_CPM1_CPM1AXI&#45;&gt;Platform_CPM1_OCM1 -->
<g id="edge27" class="edge">
<title>Platform_CPM1_CPM1AXI&#45;&gt;Platform_CPM1_OCM1</title>
<path fill="none" stroke="black" d="M989.09,-219.59C917.27,-207.53 812.04,-189.86 738.31,-177.49"/>
<polygon fill="black" stroke="black" points="738.56,-173.98 728.12,-175.78 737.4,-180.89 738.56,-173.98"/>
</g>
<!-- Platform_CPM1_CPM1AXI&#45;&gt;Platform_MainBus -->
<g id="edge31" class="edge">
<title>Platform_CPM1_CPM1AXI&#45;&gt;Platform_MainBus</title>
<path fill="none" stroke="black" d="M1095.35,-216.23C1110.15,-206.81 1128.79,-194.95 1144.72,-184.82"/>
<polygon fill="black" stroke="black" points="1146.69,-187.71 1153.25,-179.39 1142.93,-181.8 1146.69,-187.71"/>
</g>
<!-- Platform_CPM2_core3 -->
<g id="node9" class="node">
<title>Platform_CPM2_core3</title>
<ellipse fill="none" stroke="black" cx="254" cy="-306" rx="114.28" ry="18"/>
<text text-anchor="middle" x="254" y="-302.3" font-family="Times,serif" font-size="14.00">Platform_CPM2_core3</text>
</g>
<!-- Platform_CPM2&#45;&gt;Platform_CPM2_core3 -->
<g id="edge11" class="edge">
<title>Platform_CPM2&#45;&gt;Platform_CPM2_core3</title>
<path fill="none" stroke="black" d="M248.08,-359.7C247.29,-351.98 247.06,-342.71 247.4,-334.11"/>
<polygon fill="black" stroke="black" points="250.9,-334.32 248.1,-324.1 243.92,-333.84 250.9,-334.32"/>
</g>
<!-- Platform_CPM2&#45;&gt;Platform_CPM2_core3 -->
<g id="edge12" class="edge">
<title>Platform_CPM2&#45;&gt;Platform_CPM2_core3</title>
<path fill="none" stroke="black" d="M259.92,-359.7C260.71,-351.98 260.94,-342.71 260.6,-334.11"/>
<polygon fill="black" stroke="black" points="264.08,-333.84 259.9,-324.1 257.1,-334.32 264.08,-333.84"/>
</g>
<!-- Platform_CPM2_core4 -->
<g id="node10" class="node">
<title>Platform_CPM2_core4</title>
<ellipse fill="none" stroke="black" cx="501" cy="-306" rx="114.28" ry="18"/>
<text text-anchor="middle" x="501" y="-302.3" font-family="Times,serif" font-size="14.00">Platform_CPM2_core4</text>
</g>
<!-- Platform_CPM2&#45;&gt;Platform_CPM2_core4 -->
<g id="edge13" class="edge">
<title>Platform_CPM2&#45;&gt;Platform_CPM2_core4</title>
<path fill="none" stroke="black" d="M298.72,-362.75C336.4,-351.66 390.75,-336.22 433.66,-324.4"/>
<polygon fill="black" stroke="black" points="434.75,-327.73 443.47,-321.71 432.9,-320.98 434.75,-327.73"/>
</g>
<!-- Platform_CPM2&#45;&gt;Platform_CPM2_core4 -->
<g id="edge14" class="edge">
<title>Platform_CPM2&#45;&gt;Platform_CPM2_core4</title>
<path fill="none" stroke="black" d="M305.87,-363.83C345.85,-352.94 401.04,-337.36 442.57,-325.26"/>
<polygon fill="black" stroke="black" points="443.66,-328.59 452.27,-322.43 441.69,-321.87 443.66,-328.59"/>
</g>
<!-- Platform_CPM2_OCM2 -->
<g id="node11" class="node">
<title>Platform_CPM2_OCM2</title>
<ellipse fill="none" stroke="black" cx="146" cy="-162" rx="117.78" ry="18"/>
<text text-anchor="middle" x="146" y="-158.3" font-family="Times,serif" font-size="14.00">Platform_CPM2_OCM2</text>
</g>
<!-- Platform_CPM2&#45;&gt;Platform_CPM2_OCM2 -->
<g id="edge15" class="edge">
<title>Platform_CPM2&#45;&gt;Platform_CPM2_OCM2</title>
<path fill="none" stroke="black" d="M190.98,-365.95C163.54,-358.15 133,-345.18 112,-324 77.08,-288.79 65.02,-261.81 84,-216 88.71,-204.64 97.17,-194.44 106.41,-186.09"/>
<polygon fill="black" stroke="black" points="108.85,-188.62 114.31,-179.54 104.38,-183.24 108.85,-188.62"/>
</g>
<!-- Platform_CPM2&#45;&gt;Platform_CPM2_OCM2 -->
<g id="edge16" class="edge">
<title>Platform_CPM2&#45;&gt;Platform_CPM2_OCM2</title>
<path fill="none" stroke="black" d="M200.97,-364C176.76,-356.04 149.34,-343.5 130,-324 95.08,-288.79 83.02,-261.81 102,-216 106.54,-205.05 114.56,-195.18 122.6,-187.01"/>
<polygon fill="black" stroke="black" points="125.11,-189.45 129.9,-180 120.26,-184.4 125.11,-189.45"/>
</g>
<!-- Platform_CPM2_CPM2AXI -->
<g id="node12" class="node">
<title>Platform_CPM2_CPM2AXI</title>
<ellipse fill="none" stroke="black" cx="235" cy="-234" rx="132.68" ry="18"/>
<text text-anchor="middle" x="235" y="-230.3" font-family="Times,serif" font-size="14.00">Platform_CPM2_CPM2AXI</text>
</g>
<!-- Platform_CPM2&#45;&gt;Platform_CPM2_CPM2AXI -->
<g id="edge17" class="edge">
<title>Platform_CPM2&#45;&gt;Platform_CPM2_CPM2AXI</title>
<path fill="none" stroke="black" d="M188.02,-366.71C162.78,-359.19 136.63,-346.24 122,-324 113.21,-310.63 113.64,-301.64 122,-288 131.2,-272.98 146.15,-262.05 162.23,-254.16"/>
<polygon fill="black" stroke="black" points="164.11,-257.15 171.8,-249.86 161.24,-250.77 164.11,-257.15"/>
</g>
<!-- Platform_CPM2&#45;&gt;Platform_CPM2_CPM2AXI -->
<g id="edge18" class="edge">
<title>Platform_CPM2&#45;&gt;Platform_CPM2_CPM2AXI</title>
<path fill="none" stroke="black" d="M197.86,-364.5C176.08,-356.74 153.29,-344.2 140,-324 131.21,-310.63 131.64,-301.64 140,-288 148.77,-273.69 162.75,-263.09 177.34,-255.3"/>
<polygon fill="black" stroke="black" points="179.04,-258.37 186.47,-250.81 175.95,-252.09 179.04,-258.37"/>
</g>
<!-- Platform_CPM2_core3&#45;&gt;Platform_CPM2_CPM2AXI -->
<g id="edge28" class="edge">
<title>Platform_CPM2_core3&#45;&gt;Platform_CPM2_CPM2AXI</title>
<path fill="none" stroke="black" d="M249.3,-287.7C247.19,-279.9 244.64,-270.51 242.28,-261.83"/>
<polygon fill="black" stroke="black" points="245.64,-260.84 239.64,-252.1 238.88,-262.67 245.64,-260.84"/>
</g>
<!-- Platform_CPM2_core4&#45;&gt;Platform_CPM2_CPM2AXI -->
<g id="edge29" class="edge">
<title>Platform_CPM2_core4&#45;&gt;Platform_CPM2_CPM2AXI</title>
<path fill="none" stroke="black" d="M444.91,-290.24C403.39,-279.31 346.64,-264.38 302.61,-252.79"/>
<polygon fill="black" stroke="black" points="303.41,-249.38 292.85,-250.22 301.63,-256.15 303.41,-249.38"/>
</g>
<!-- Platform_CPM2_CPM2AXI&#45;&gt;Platform_CPM2_OCM2 -->
<g id="edge30" class="edge">
<title>Platform_CPM2_CPM2AXI&#45;&gt;Platform_CPM2_OCM2</title>
<path fill="none" stroke="black" d="M213.46,-216.05C201.98,-207.03 187.69,-195.79 175.23,-185.99"/>
<polygon fill="black" stroke="black" points="177.37,-183.22 167.35,-179.79 173.04,-188.72 177.37,-183.22"/>
</g>
<!-- Platform_CPM2_CPM2AXI&#45;&gt;Platform_MainBus -->
<g id="edge32" class="edge">
<title>Platform_CPM2_CPM2AXI&#45;&gt;Platform_MainBus</title>
<path fill="none" stroke="black" d="M348.4,-224.59C535.22,-210.74 904.52,-183.35 1080.84,-170.28"/>
<polygon fill="black" stroke="black" points="1081.17,-173.76 1090.89,-169.53 1080.65,-166.78 1081.17,-173.76"/>
</g>
<!-- Platform_MainBus&#45;&gt;Platform_SDRAM -->
<g id="edge33" class="edge">
<title>Platform_MainBus&#45;&gt;Platform_SDRAM</title>
<path fill="none" stroke="black" d="M1216.25,-145.29C1240.69,-134.99 1272.81,-121.44 1298.86,-110.46"/>
<polygon fill="black" stroke="black" points="1300.3,-113.65 1308.16,-106.54 1297.58,-107.2 1300.3,-113.65"/>
</g>
<!-- C1 -->
<g id="node16" class="node">
<title>C1</title>
<ellipse fill="none" stroke="black" cx="1309" cy="-18" rx="27" ry="18"/>
<text text-anchor="middle" x="1309" y="-14.3" font-family="Times,serif" font-size="14.00">C1</text>
</g>
<!-- Platform_SDRAM&#45;&gt;C1 -->
<g id="edge74" class="edge">
<title>Platform_SDRAM&#45;&gt;C1</title>
<path fill="none" stroke="black" d="M1324.79,-72.41C1318.87,-64.34 1313.3,-54.43 1309.43,-45.35"/>
<polygon fill="black" stroke="black" points="1312.7,-44.13 1305.96,-35.96 1306.14,-46.55 1312.7,-44.13"/>
</g>
<!-- C2 -->
<g id="node17" class="node">
<title>C2</title>
<ellipse fill="none" stroke="black" cx="1381" cy="-18" rx="27" ry="18"/>
<text text-anchor="middle" x="1381" y="-14.3" font-family="Times,serif" font-size="14.00">C2</text>
</g>
<!-- Platform_SDRAM&#45;&gt;C2 -->
<g id="edge77" class="edge">
<title>Platform_SDRAM&#45;&gt;C2</title>
<path fill="none" stroke="black" d="M1342.07,-71.7C1345,-62.18 1350.88,-50.29 1357.57,-40.21"/>
<polygon fill="black" stroke="black" points="1360.54,-42.08 1363.59,-31.93 1354.88,-37.96 1360.54,-42.08"/>
</g>
<!-- C8 -->
<g id="node23" class="node">
<title>C8</title>
<ellipse fill="none" stroke="black" cx="1377" cy="-162" rx="27" ry="18"/>
<text text-anchor="middle" x="1377" y="-158.3" font-family="Times,serif" font-size="14.00">C8</text>
</g>
<!-- Platform_SDRAM&#45;&gt;C8 -->
<g id="edge80" class="edge">
<title>Platform_SDRAM&#45;&gt;C8</title>
<path fill="none" stroke="black" d="M1358.71,-108.1C1363.13,-115.96 1367.7,-125.46 1371.34,-134.23"/>
<polygon fill="black" stroke="black" points="1368.13,-135.63 1375.01,-143.7 1374.66,-133.11 1368.13,-135.63"/>
</g>
<!-- Period60Hz -->
<g id="node15" class="node">
<title>Period60Hz</title>
<ellipse fill="none" stroke="black" cx="1845" cy="-810" rx="64.99" ry="18"/>
<text text-anchor="middle" x="1845" y="-806.3" font-family="Times,serif" font-size="14.00">Period60Hz</text>
</g>
<!-- C1&#45;&gt;Platform_SDRAM -->
<g id="edge72" class="edge">
<title>C1&#45;&gt;Platform_SDRAM</title>
<path fill="none" stroke="black" d="M1317.39,-35.31C1321.64,-43.58 1326.91,-53.83 1331.71,-63.15"/>
<polygon fill="black" stroke="black" points="1328.6,-64.76 1336.29,-72.05 1334.82,-61.56 1328.6,-64.76"/>
</g>
<!-- C1&#45;&gt;Platform_SDRAM -->
<g id="edge73" class="edge">
<title>C1&#45;&gt;Platform_SDRAM</title>
<path fill="none" stroke="black" d="M1326.41,-31.93C1333.23,-40.41 1339.9,-51.81 1344.38,-62.19"/>
<polygon fill="black" stroke="black" points="1341.15,-63.56 1347.93,-71.7 1347.71,-61.1 1341.15,-63.56"/>
</g>
<!-- R2 -->
<g id="node25" class="node">
<title>R2</title>
<ellipse fill="none" stroke="black" cx="1193" cy="-522" rx="27" ry="18"/>
<text text-anchor="middle" x="1193" y="-518.3" font-family="Times,serif" font-size="14.00">R2</text>
</g>
<!-- C1&#45;&gt;R2 -->
<g id="edge38" class="edge">
<title>C1&#45;&gt;R2</title>
<path fill="none" stroke="black" d="M1281.96,-19C1094.85,-19.37 0,-27.2 0,-161 0,-379 0,-379 0,-379 0,-498.36 953.82,-517.8 1155.73,-520.58"/>
<polygon fill="black" stroke="black" points="1155.8,-524.08 1165.84,-520.71 1155.89,-517.08 1155.8,-524.08"/>
</g>
<!-- C2&#45;&gt;Platform_SDRAM -->
<g id="edge75" class="edge">
<title>C2&#45;&gt;Platform_SDRAM</title>
<path fill="none" stroke="black" d="M1372.61,-35.31C1368.36,-43.58 1363.09,-53.83 1358.29,-63.15"/>
<polygon fill="black" stroke="black" points="1355.18,-61.56 1353.71,-72.05 1361.4,-64.76 1355.18,-61.56"/>
</g>
<!-- C2&#45;&gt;Platform_SDRAM -->
<g id="edge76" class="edge">
<title>C2&#45;&gt;Platform_SDRAM</title>
<path fill="none" stroke="black" d="M1384.04,-35.96C1381.5,-44.35 1376.62,-54.64 1370.9,-63.92"/>
<polygon fill="black" stroke="black" points="1367.87,-62.16 1365.21,-72.41 1373.69,-66.05 1367.87,-62.16"/>
</g>
<!-- R1 -->
<g id="node24" class="node">
<title>R1</title>
<ellipse fill="none" stroke="black" cx="1661" cy="-666" rx="27" ry="18"/>
<text text-anchor="middle" x="1661" y="-662.3" font-family="Times,serif" font-size="14.00">R1</text>
</g>
<!-- C2&#45;&gt;R1 -->
<g id="edge34" class="edge">
<title>C2&#45;&gt;R1</title>
<path fill="none" stroke="black" d="M1406.96,-23.29C1490.34,-37.78 1746,-88.16 1746,-161 1746,-523 1746,-523 1746,-523 1746,-563.45 1748.22,-577.57 1727,-612 1717.83,-626.88 1702.93,-639.38 1689.61,-648.49"/>
<polygon fill="black" stroke="black" points="1687.64,-645.6 1681.16,-653.98 1691.45,-651.47 1687.64,-645.6"/>
</g>
<!-- C3 -->
<g id="node18" class="node">
<title>C3</title>
<ellipse fill="none" stroke="black" cx="1547" cy="-594" rx="27" ry="18"/>
<text text-anchor="middle" x="1547" y="-590.3" font-family="Times,serif" font-size="14.00">C3</text>
</g>
<!-- C3&#45;&gt;R2 -->
<g id="edge37" class="edge">
<title>C3&#45;&gt;R2</title>
<path fill="none" stroke="black" d="M1526.45,-582.11C1521.5,-579.82 1516.15,-577.61 1511,-576 1412.23,-545.1 1290.25,-531.19 1230.11,-525.84"/>
<polygon fill="black" stroke="black" points="1230.23,-522.34 1219.96,-524.97 1229.63,-529.32 1230.23,-522.34"/>
</g>
<!-- C4 -->
<g id="node19" class="node">
<title>C4</title>
<ellipse fill="none" stroke="black" cx="1619" cy="-594" rx="27" ry="18"/>
<text text-anchor="middle" x="1619" y="-590.3" font-family="Times,serif" font-size="14.00">C4</text>
</g>
<!-- R3 -->
<g id="node26" class="node">
<title>R3</title>
<ellipse fill="none" stroke="black" cx="1655" cy="-522" rx="27" ry="18"/>
<text text-anchor="middle" x="1655" y="-518.3" font-family="Times,serif" font-size="14.00">R3</text>
</g>
<!-- C4&#45;&gt;R3 -->
<g id="edge40" class="edge">
<title>C4&#45;&gt;R3</title>
<path fill="none" stroke="black" d="M1627.35,-576.76C1631.71,-568.28 1637.15,-557.71 1642.04,-548.2"/>
<polygon fill="black" stroke="black" points="1645.23,-549.64 1646.7,-539.15 1639.01,-546.44 1645.23,-549.64"/>
</g>
<!-- C5 -->
<g id="node20" class="node">
<title>C5</title>
<ellipse fill="none" stroke="black" cx="1597" cy="-450" rx="27" ry="18"/>
<text text-anchor="middle" x="1597" y="-446.3" font-family="Times,serif" font-size="14.00">C5</text>
</g>
<!-- R4 -->
<g id="node27" class="node">
<title>R4</title>
<ellipse fill="none" stroke="black" cx="1475" cy="-378" rx="27" ry="18"/>
<text text-anchor="middle" x="1475" y="-374.3" font-family="Times,serif" font-size="14.00">R4</text>
</g>
<!-- C5&#45;&gt;R4 -->
<g id="edge42" class="edge">
<title>C5&#45;&gt;R4</title>
<path fill="none" stroke="black" d="M1577.13,-437.6C1557.19,-426.16 1526.27,-408.42 1503.68,-395.46"/>
<polygon fill="black" stroke="black" points="1505.28,-392.34 1494.86,-390.4 1501.8,-398.41 1505.28,-392.34"/>
</g>
<!-- C6 -->
<g id="node21" class="node">
<title>C6</title>
<ellipse fill="none" stroke="black" cx="1250" cy="-450" rx="27" ry="18"/>
<text text-anchor="middle" x="1250" y="-446.3" font-family="Times,serif" font-size="14.00">C6</text>
</g>
<!-- R5 -->
<g id="node28" class="node">
<title>R5</title>
<ellipse fill="none" stroke="black" cx="1407" cy="-234" rx="27" ry="18"/>
<text text-anchor="middle" x="1407" y="-230.3" font-family="Times,serif" font-size="14.00">R5</text>
</g>
<!-- C6&#45;&gt;R5 -->
<g id="edge44" class="edge">
<title>C6&#45;&gt;R5</title>
<path fill="none" stroke="black" d="M1272.38,-439.82C1291.45,-431.01 1318.48,-416.1 1336,-396 1337.2,-394.63 1375.96,-306.07 1395.7,-260.9"/>
<polygon fill="black" stroke="black" points="1399.03,-262.01 1399.82,-251.45 1392.61,-259.21 1399.03,-262.01"/>
</g>
<!-- C7 -->
<g id="node22" class="node">
<title>C7</title>
<ellipse fill="none" stroke="black" cx="1473" cy="-306" rx="27" ry="18"/>
<text text-anchor="middle" x="1473" y="-302.3" font-family="Times,serif" font-size="14.00">C7</text>
</g>
<!-- C7&#45;&gt;R5 -->
<g id="edge45" class="edge">
<title>C7&#45;&gt;R5</title>
<path fill="none" stroke="black" d="M1459,-290.15C1449.99,-280.6 1438.11,-267.99 1427.98,-257.25"/>
<polygon fill="black" stroke="black" points="1430.38,-254.7 1420.98,-249.82 1425.29,-259.5 1430.38,-254.7"/>
</g>
<!-- C8&#45;&gt;Platform_SDRAM -->
<g id="edge78" class="edge">
<title>C8&#45;&gt;Platform_SDRAM</title>
<path fill="none" stroke="black" d="M1369.42,-144.41C1365.69,-136.25 1361.1,-126.22 1356.92,-117.07"/>
<polygon fill="black" stroke="black" points="1360.09,-115.6 1352.75,-107.96 1353.73,-118.51 1360.09,-115.6"/>
</g>
<!-- C8&#45;&gt;Platform_SDRAM -->
<g id="edge79" class="edge">
<title>C8&#45;&gt;Platform_SDRAM</title>
<path fill="none" stroke="black" d="M1364.38,-145.81C1359.61,-137.57 1354.55,-127.15 1350.59,-117.62"/>
<polygon fill="black" stroke="black" points="1353.8,-116.2 1346.93,-108.13 1347.27,-118.72 1353.8,-116.2"/>
</g>
<!-- R1&#45;&gt;C3 -->
<g id="edge36" class="edge">
<title>R1&#45;&gt;C3</title>
<path fill="none" stroke="black" d="M1641.66,-653.13C1623.4,-641.91 1595.81,-624.97 1575.11,-612.26"/>
<polygon fill="black" stroke="black" points="1576.79,-609.18 1566.43,-606.93 1573.12,-615.15 1576.79,-609.18"/>
</g>
<!-- R1&#45;&gt;C4 -->
<g id="edge35" class="edge">
<title>R1&#45;&gt;C4</title>
<path fill="none" stroke="black" d="M1651.47,-649.12C1646.33,-640.56 1639.88,-629.8 1634.08,-620.13"/>
<polygon fill="black" stroke="black" points="1636.93,-618.08 1628.78,-611.31 1630.93,-621.68 1636.93,-618.08"/>
</g>
<!-- R2&#45;&gt;C6 -->
<g id="edge39" class="edge">
<title>R2&#45;&gt;C6</title>
<path fill="none" stroke="black" d="M1205.37,-505.81C1212.91,-496.55 1222.7,-484.52 1231.19,-474.09"/>
<polygon fill="black" stroke="black" points="1234.06,-476.12 1237.66,-466.16 1228.63,-471.7 1234.06,-476.12"/>
</g>
<!-- R3&#45;&gt;C5 -->
<g id="edge41" class="edge">
<title>R3&#45;&gt;C5</title>
<path fill="none" stroke="black" d="M1642.41,-505.81C1634.74,-496.55 1624.77,-484.52 1616.14,-474.09"/>
<polygon fill="black" stroke="black" points="1618.64,-471.63 1609.56,-466.16 1613.25,-476.09 1618.64,-471.63"/>
</g>
<!-- R4&#45;&gt;C7 -->
<g id="edge43" class="edge">
<title>R4&#45;&gt;C7</title>
<path fill="none" stroke="black" d="M1474.51,-359.7C1474.29,-351.98 1474.02,-342.71 1473.77,-334.11"/>
<polygon fill="black" stroke="black" points="1477.27,-334 1473.49,-324.1 1470.28,-334.2 1477.27,-334"/>
</g>
<!-- R5&#45;&gt;C8 -->
<g id="edge46" class="edge">
<title>R5&#45;&gt;C8</title>
<path fill="none" stroke="black" d="M1399.89,-216.41C1396.34,-208.13 1391.97,-197.92 1388,-188.66"/>
<polygon fill="black" stroke="black" points="1391.21,-187.28 1384.06,-179.47 1384.78,-190.04 1391.21,-187.28"/>
</g>
<!-- T1&#45;&gt;R1 -->
<g id="edge48" class="edge">
<title>T1&#45;&gt;R1</title>
<path fill="none" stroke="black" d="M1655.16,-720.41C1654.3,-712.51 1654.05,-702.85 1654.41,-693.94"/>
<polygon fill="black" stroke="black" points="1657.9,-694.18 1655.12,-683.96 1650.92,-693.68 1657.9,-694.18"/>
</g>
<!-- T1&#45;&gt;R1 -->
<g id="edge49" class="edge">
<title>T1&#45;&gt;R1</title>
<path fill="none" stroke="black" d="M1666.84,-720.41C1667.7,-712.51 1667.95,-702.85 1667.59,-693.94"/>
<polygon fill="black" stroke="black" points="1671.08,-693.68 1666.88,-683.96 1664.1,-694.18 1671.08,-693.68"/>
</g>
<!-- T2&#45;&gt;R2 -->
<g id="edge51" class="edge">
<title>T2&#45;&gt;R2</title>
<path fill="none" stroke="black" d="M1187.16,-576.41C1186.3,-568.51 1186.05,-558.85 1186.41,-549.94"/>
<polygon fill="black" stroke="black" points="1189.9,-550.18 1187.12,-539.96 1182.92,-549.68 1189.9,-550.18"/>
</g>
<!-- T2&#45;&gt;R2 -->
<g id="edge52" class="edge">
<title>T2&#45;&gt;R2</title>
<path fill="none" stroke="black" d="M1198.84,-576.41C1199.7,-568.51 1199.95,-558.85 1199.59,-549.94"/>
<polygon fill="black" stroke="black" points="1203.08,-549.68 1198.88,-539.96 1196.1,-550.18 1203.08,-549.68"/>
</g>
<!-- T3&#45;&gt;R3 -->
<g id="edge54" class="edge">
<title>T3&#45;&gt;R3</title>
<path fill="none" stroke="black" d="M1677.73,-578.15C1672.38,-569.79 1666.57,-559.09 1661.99,-549.34"/>
<polygon fill="black" stroke="black" points="1665.12,-547.77 1657.88,-540.04 1658.71,-550.6 1665.12,-547.77"/>
</g>
<!-- T3&#45;&gt;R3 -->
<g id="edge55" class="edge">
<title>T3&#45;&gt;R3</title>
<path fill="none" stroke="black" d="M1688.16,-576.05C1684.56,-567.22 1679.11,-556.28 1673.58,-546.63"/>
<polygon fill="black" stroke="black" points="1676.46,-544.64 1668.3,-537.89 1670.47,-548.26 1676.46,-544.64"/>
</g>
<!-- T4&#45;&gt;R4 -->
<g id="edge57" class="edge">
<title>T4&#45;&gt;R4</title>
<path fill="none" stroke="black" d="M1471.12,-575.85C1467.58,-538.74 1467.31,-450.75 1470.33,-406.05"/>
<polygon fill="black" stroke="black" points="1473.83,-406.18 1471.14,-395.94 1466.85,-405.62 1473.83,-406.18"/>
</g>
<!-- T4&#45;&gt;R4 -->
<g id="edge58" class="edge">
<title>T4&#45;&gt;R4</title>
<path fill="none" stroke="black" d="M1478.88,-575.85C1482.42,-538.74 1482.69,-450.75 1479.67,-406.05"/>
<polygon fill="black" stroke="black" points="1483.15,-405.62 1478.86,-395.94 1476.17,-406.18 1483.15,-405.62"/>
</g>
<!-- T5&#45;&gt;R5 -->
<g id="edge60" class="edge">
<title>T5&#45;&gt;R5</title>
<path fill="none" stroke="black" d="M1394.07,-575.97C1393.4,-549.34 1398,-496.21 1398,-451 1398,-451 1398,-451 1398,-377 1398,-336.78 1398,-290.15 1400.33,-261.61"/>
<polygon fill="black" stroke="black" points="1403.82,-261.92 1401.34,-251.61 1396.85,-261.21 1403.82,-261.92"/>
</g>
<!-- T5&#45;&gt;R5 -->
<g id="edge61" class="edge">
<title>T5&#45;&gt;R5</title>
<path fill="none" stroke="black" d="M1405.39,-576.41C1411.35,-549.92 1416,-496.45 1416,-451 1416,-451 1416,-451 1416,-377 1416,-336.78 1416,-290.15 1413.67,-261.61"/>
<polygon fill="black" stroke="black" points="1417.15,-261.21 1412.66,-251.61 1410.18,-261.92 1417.15,-261.21"/>
</g>
<!-- R1_to_R2 -->
<g id="node34" class="node">
<title>R1_to_R2</title>
<ellipse fill="none" stroke="black" cx="1230" cy="-810" rx="53.89" ry="18"/>
<text text-anchor="middle" x="1230" y="-806.3" font-family="Times,serif" font-size="14.00">R1_to_R2</text>
</g>
<!-- R1_to_R2&#45;&gt;T1 -->
<g id="edge62" class="edge">
<title>R1_to_R2&#45;&gt;T1</title>
<path fill="none" stroke="black" d="M1277.36,-801.31C1364.14,-787.21 1546.86,-757.54 1624.67,-744.9"/>
<polygon fill="black" stroke="black" points="1625.63,-748.29 1634.94,-743.23 1624.5,-741.38 1625.63,-748.29"/>
</g>
<!-- R1_to_R2&#45;&gt;T2 -->
<g id="edge63" class="edge">
<title>R1_to_R2&#45;&gt;T2</title>
<path fill="none" stroke="black" d="M1191.44,-797.24C1171.73,-789.05 1149.53,-775.95 1138,-756 1113.98,-714.44 1119.22,-692.17 1138,-648 1143.83,-634.29 1155.14,-622.4 1165.99,-613.38"/>
<polygon fill="black" stroke="black" points="1168.37,-615.97 1174.1,-607.06 1164.06,-610.45 1168.37,-615.97"/>
</g>
<!-- R1_to_R3 -->
<g id="node35" class="node">
<title>R1_to_R3</title>
<ellipse fill="none" stroke="black" cx="1708" cy="-810" rx="53.89" ry="18"/>
<text text-anchor="middle" x="1708" y="-806.3" font-family="Times,serif" font-size="14.00">R1_to_R3</text>
</g>
<!-- R1_to_R3&#45;&gt;T1 -->
<g id="edge64" class="edge">
<title>R1_to_R3&#45;&gt;T1</title>
<path fill="none" stroke="black" d="M1696.62,-792.05C1690.8,-783.38 1683.61,-772.67 1677.21,-763.15"/>
<polygon fill="black" stroke="black" points="1680.11,-761.18 1671.63,-754.83 1674.3,-765.08 1680.11,-761.18"/>
</g>
<!-- R1_to_R3&#45;&gt;T3 -->
<g id="edge65" class="edge">
<title>R1_to_R3&#45;&gt;T3</title>
<path fill="none" stroke="black" d="M1717.13,-791.88C1722.01,-781.76 1727.51,-768.51 1730,-756 1739.38,-708.93 1744.97,-693.61 1730,-648 1726.29,-636.7 1719.15,-625.82 1711.98,-616.89"/>
<polygon fill="black" stroke="black" points="1714.64,-614.62 1705.48,-609.29 1709.31,-619.17 1714.64,-614.62"/>
</g>
<!-- R2_to_R5 -->
<g id="node36" class="node">
<title>R2_to_R5</title>
<ellipse fill="none" stroke="black" cx="1234" cy="-666" rx="53.89" ry="18"/>
<text text-anchor="middle" x="1234" y="-662.3" font-family="Times,serif" font-size="14.00">R2_to_R5</text>
</g>
<!-- R2_to_R5&#45;&gt;T2 -->
<g id="edge66" class="edge">
<title>R2_to_R5&#45;&gt;T2</title>
<path fill="none" stroke="black" d="M1224.08,-648.05C1219.17,-639.68 1213.15,-629.4 1207.72,-620.13"/>
<polygon fill="black" stroke="black" points="1210.63,-618.17 1202.55,-611.31 1204.59,-621.7 1210.63,-618.17"/>
</g>
<!-- R2_to_R5&#45;&gt;T5 -->
<g id="edge67" class="edge">
<title>R2_to_R5&#45;&gt;T5</title>
<path fill="none" stroke="black" d="M1266.01,-651.34C1294.99,-638.97 1337.43,-620.85 1366.31,-608.53"/>
<polygon fill="black" stroke="black" points="1367.72,-611.73 1375.54,-604.58 1364.97,-605.29 1367.72,-611.73"/>
</g>
<!-- R3_to_R4 -->
<g id="node37" class="node">
<title>R3_to_R4</title>
<ellipse fill="none" stroke="black" cx="1562" cy="-666" rx="53.89" ry="18"/>
<text text-anchor="middle" x="1562" y="-662.3" font-family="Times,serif" font-size="14.00">R3_to_R4</text>
</g>
<!-- R3_to_R4&#45;&gt;T3 -->
<g id="edge68" class="edge">
<title>R3_to_R4&#45;&gt;T3</title>
<path fill="none" stroke="black" d="M1589.04,-650.33C1610.38,-638.75 1640.07,-622.63 1661.92,-610.78"/>
<polygon fill="black" stroke="black" points="1663.63,-613.83 1670.75,-605.99 1660.29,-607.68 1663.63,-613.83"/>
</g>
<!-- R3_to_R4&#45;&gt;T4 -->
<g id="edge69" class="edge">
<title>R3_to_R4&#45;&gt;T4</title>
<path fill="none" stroke="black" d="M1542.26,-649.12C1529.64,-638.96 1513.17,-625.71 1499.68,-614.86"/>
<polygon fill="black" stroke="black" points="1501.72,-612.01 1491.74,-608.47 1497.33,-617.46 1501.72,-612.01"/>
</g>
<!-- R4_to_R5 -->
<g id="node38" class="node">
<title>R4_to_R5</title>
<ellipse fill="none" stroke="black" cx="1398" cy="-666" rx="53.89" ry="18"/>
<text text-anchor="middle" x="1398" y="-662.3" font-family="Times,serif" font-size="14.00">R4_to_R5</text>
</g>
<!-- R4_to_R5&#45;&gt;T4 -->
<g id="edge70" class="edge">
<title>R4_to_R5&#45;&gt;T4</title>
<path fill="none" stroke="black" d="M1415.86,-648.76C1426.62,-638.99 1440.42,-626.43 1451.99,-615.91"/>
<polygon fill="black" stroke="black" points="1454.53,-618.33 1459.58,-609.02 1449.83,-613.16 1454.53,-618.33"/>
</g>
<!-- R4_to_R5&#45;&gt;T5 -->
<g id="edge71" class="edge">
<title>R4_to_R5&#45;&gt;T5</title>
<path fill="none" stroke="black" d="M1398,-647.7C1398,-639.98 1398,-630.71 1398,-622.11"/>
<polygon fill="black" stroke="black" points="1401.5,-622.1 1398,-612.1 1394.5,-622.1 1401.5,-622.1"/>
</g>
</g>
</svg>
