<?xml version="1.0" encoding="UTF-8" standalone="no"?>
<!DOCTYPE svg PUBLIC "-//W3C//DTD SVG 1.1//EN"
 "http://www.w3.org/Graphics/SVG/1.1/DTD/svg11.dtd">
<!-- Generated by graphviz version 2.43.0 (0)
 -->
<!-- Title: %3 Pages: 1 -->
<svg width="1211pt" height="891pt"
 viewBox="0.00 0.00 1211.00 890.67" xmlns="http://www.w3.org/2000/svg" xmlns:xlink="http://www.w3.org/1999/xlink">
<g id="graph0" class="graph" transform="scale(1 1) rotate(0) translate(4 886.67)">
<title>%3</title>
<polygon fill="white" stroke="transparent" points="-4,4 -4,-886.67 1207,-886.67 1207,4 -4,4"/>
<polygon fill="#ffffff" stroke="transparent" points="0,0 0,-843 1203,-843 1203,0 0,0"/>
<g id="clust1" class="cluster">
<title>cluster_T5</title>
<polygon fill="none" stroke="black" points="1030,-103 1030,-214 1118,-214 1118,-103 1030,-103"/>
<text text-anchor="middle" x="1074" y="-198.8" font-family="Times,serif" font-size="14.00">T5</text>
</g>
<g id="clust2" class="cluster">
<title>cluster_Platform</title>
<polygon fill="none" stroke="black" points="108,-245 108,-865 1018,-865 1018,-245 108,-245"/>
<text text-anchor="middle" x="563" y="-849.8" font-family="Times,serif" font-size="14.00">Platform</text>
</g>
<g id="clust3" class="cluster">
<title>cluster_Platform.CPM2</title>
<polygon fill="none" stroke="black" points="116,-701 116,-834 1010,-834 1010,-701 116,-701"/>
<text text-anchor="middle" x="563" y="-818.8" font-family="Times,serif" font-size="14.00">Platform.CPM2</text>
</g>
<g id="clust4" class="cluster">
<title>cluster_Platform.SDRAM</title>
<polygon fill="none" stroke="black" points="161.5,-253 161.5,-472 332.5,-472 332.5,-253 161.5,-253"/>
<text text-anchor="middle" x="247" y="-456.8" font-family="Times,serif" font-size="14.00">Platform.SDRAM</text>
</g>
<g id="clust5" class="cluster">
<title>cluster_Platform.CPM1</title>
<polygon fill="none" stroke="black" points="116,-480 116,-613 1010,-613 1010,-480 116,-480"/>
<text text-anchor="middle" x="563" y="-597.8" font-family="Times,serif" font-size="14.00">Platform.CPM1</text>
</g>
<g id="clust6" class="cluster">
<title>cluster_T1</title>
<polygon fill="none" stroke="black" points="8,-126 8,-237 96,-237 96,-126 8,-126"/>
<text text-anchor="middle" x="52" y="-221.8" font-family="Times,serif" font-size="14.00">T1</text>
</g>
<g id="clust7" class="cluster">
<title>cluster_T2</title>
<polygon fill="none" stroke="black" points="514,-126 514,-237 602,-237 602,-126 514,-126"/>
<text text-anchor="middle" x="558" y="-221.8" font-family="Times,serif" font-size="14.00">T2</text>
</g>
<g id="clust8" class="cluster">
<title>cluster_T3</title>
<polygon fill="none" stroke="black" points="514,-31 514,-118 602,-118 602,-31 514,-31"/>
<text text-anchor="middle" x="558" y="-102.8" font-family="Times,serif" font-size="14.00">T3</text>
</g>
<g id="clust9" class="cluster">
<title>cluster_T4</title>
<polygon fill="none" stroke="black" points="1030,-8 1030,-95 1118,-95 1118,-8 1030,-8"/>
<text text-anchor="middle" x="1074" y="-79.8" font-family="Times,serif" font-size="14.00">T4</text>
</g>
<!-- R5 -->
<g id="node1" class="node">
<title>R5</title>
<polygon fill="none" stroke="black" points="1038,-112 1038,-182 1110,-182 1110,-112 1038,-112"/>
<text text-anchor="middle" x="1056" y="-143.3" font-family="Times,serif" font-size="14.00">R5</text>
<polyline fill="none" stroke="black" points="1074,-112 1074,-182 "/>
<text text-anchor="middle" x="1092" y="-166.8" font-family="Times,serif" font-size="14.00">C6</text>
<polyline fill="none" stroke="black" points="1074,-159 1110,-159 "/>
<text text-anchor="middle" x="1092" y="-143.8" font-family="Times,serif" font-size="14.00">C7</text>
<polyline fill="none" stroke="black" points="1074,-136 1110,-136 "/>
<text text-anchor="middle" x="1092" y="-120.3" font-family="Times,serif" font-size="14.00">C8</text>
</g>
<!-- C8 -->
<g id="node8" class="node">
<title>C8</title>
<polygon fill="none" stroke="black" points="169.5,-327.5 169.5,-374.5 324.5,-374.5 324.5,-327.5 169.5,-327.5"/>
<text text-anchor="middle" x="187.5" y="-347.3" font-family="Times,serif" font-size="14.00">C8</text>
<polyline fill="none" stroke="black" points="205.5,-327.5 205.5,-374.5 "/>
<text text-anchor="middle" x="265" y="-359.3" font-family="Times,serif" font-size="14.00">allocationHost</text>
<polyline fill="none" stroke="black" points="205.5,-351.5 324.5,-351.5 "/>
<text text-anchor="middle" x="265" y="-335.8" font-family="Times,serif" font-size="14.00">mappingHost</text>
</g>
<!-- R5&#45;&gt;C8 -->
<g id="edge21" class="edge">
<title>R5:C8&#45;&gt;C8</title>
<path fill="none" stroke="black" d="M1092,-111C1092,-99 1047.32,-104.44 1038,-112 1007.19,-137 1046.49,-171.38 1018,-199 830.84,-380.43 493.43,-375.59 334.83,-361.55"/>
<polygon fill="black" stroke="black" points="334.92,-358.04 324.64,-360.61 334.28,-365.01 334.92,-358.04"/>
</g>
<!-- Platform.CPM2.core3 -->
<g id="node2" class="node">
<title>Platform.CPM2.core3</title>
<polygon fill="none" stroke="black" points="124,-709.5 124,-746.5 370,-746.5 370,-709.5 124,-709.5"/>
<text text-anchor="middle" x="209.5" y="-724.3" font-family="Times,serif" font-size="14.00">Platform.CPM2.core3</text>
<polyline fill="none" stroke="black" points="295,-709.5 295,-746.5 "/>
<text text-anchor="middle" x="332.5" y="-724.3" font-family="Times,serif" font-size="14.00">core3P1</text>
</g>
<!-- Platform.CPM2.CPM2AXI -->
<g id="node3" class="node">
<title>Platform.CPM2.CPM2AXI</title>
<polygon fill="none" stroke="black" points="406,-709.5 406,-802.5 710,-802.5 710,-709.5 406,-709.5"/>
<text text-anchor="middle" x="506" y="-752.3" font-family="Times,serif" font-size="14.00">Platform.CPM2.CPM2AXI</text>
<polyline fill="none" stroke="black" points="606,-709.5 606,-802.5 "/>
<text text-anchor="middle" x="658" y="-787.3" font-family="Times,serif" font-size="14.00">CPM1AXIP2</text>
<polyline fill="none" stroke="black" points="606,-779.5 710,-779.5 "/>
<text text-anchor="middle" x="658" y="-764.3" font-family="Times,serif" font-size="14.00">CPM1AXIP1</text>
<polyline fill="none" stroke="black" points="606,-756.5 710,-756.5 "/>
<text text-anchor="middle" x="658" y="-741.3" font-family="Times,serif" font-size="14.00">CPM1AXIP4</text>
<polyline fill="none" stroke="black" points="606,-733.5 710,-733.5 "/>
<text text-anchor="middle" x="658" y="-717.8" font-family="Times,serif" font-size="14.00">CPM1AXIP3</text>
</g>
<!-- Platform.CPM2.core3&#45;&gt;Platform.CPM2.CPM2AXI -->
<g id="edge1" class="edge">
<title>Platform.CPM2.core3:core3P1&#45;&gt;Platform.CPM2.CPM2AXI:CPM1AXIP1</title>
<path fill="none" stroke="black" d="M370,-728C406.97,-728 374.71,-783.31 406,-803 686.37,-979.42 733.75,-812.21 718.66,-774.97"/>
<polygon fill="black" stroke="black" points="720.75,-772.14 711,-768 716.04,-777.32 720.75,-772.14"/>
</g>
<!-- Platform.CPM2.OCM2 -->
<g id="node4" class="node">
<title>Platform.CPM2.OCM2</title>
<polygon fill="none" stroke="black" points="746,-711.5 746,-748.5 1002,-748.5 1002,-711.5 746,-711.5"/>
<text text-anchor="middle" x="834" y="-726.3" font-family="Times,serif" font-size="14.00">Platform.CPM2.OCM2</text>
<polyline fill="none" stroke="black" points="922,-711.5 922,-748.5 "/>
<text text-anchor="middle" x="962" y="-726.3" font-family="Times,serif" font-size="14.00">OCM2P1</text>
</g>
<!-- Platform.CPM2.CPM2AXI&#45;&gt;Platform.CPM2.OCM2 -->
<g id="edge2" class="edge">
<title>Platform.CPM2.CPM2AXI:CPM1AXIP3&#45;&gt;Platform.CPM2.OCM2:OCM2P1</title>
<path fill="none" stroke="black" d="M710,-721C730.27,-721 726.84,-742.38 746,-749 833.37,-779.2 952.75,-841.18 961.49,-760.03"/>
<polygon fill="black" stroke="black" points="964.99,-760.16 962,-750 958,-759.81 964.99,-760.16"/>
</g>
<!-- Platform.MainBus -->
<g id="node13" class="node">
<title>Platform.MainBus</title>
<polygon fill="none" stroke="black" points="752,-622 752,-692 996,-692 996,-622 752,-622"/>
<text text-anchor="middle" x="825" y="-653.3" font-family="Times,serif" font-size="14.00">Platform.MainBus</text>
<polyline fill="none" stroke="black" points="898,-622 898,-692 "/>
<text text-anchor="middle" x="947" y="-676.8" font-family="Times,serif" font-size="14.00">MainBusP3</text>
<polyline fill="none" stroke="black" points="898,-669 996,-669 "/>
<text text-anchor="middle" x="947" y="-653.8" font-family="Times,serif" font-size="14.00">MainBusP2</text>
<polyline fill="none" stroke="black" points="898,-646 996,-646 "/>
<text text-anchor="middle" x="947" y="-630.3" font-family="Times,serif" font-size="14.00">MainBusP1</text>
</g>
<!-- Platform.CPM2.CPM2AXI&#45;&gt;Platform.MainBus -->
<g id="edge8" class="edge">
<title>Platform.CPM2.CPM2AXI:CPM1AXIP4&#45;&gt;Platform.MainBus:MainBusP2</title>
<path fill="none" stroke="black" d="M710,-745C736.67,-745 722.26,-709.14 746,-697 758.37,-690.68 986.12,-702.27 996,-692.5 1003.67,-684.92 1008.63,-670.94 1005.57,-663.31"/>
<polygon fill="black" stroke="black" points="1007.34,-660.29 997,-658 1003.66,-666.24 1007.34,-660.29"/>
</g>
<!-- Platform.CPM2.core4 -->
<g id="node5" class="node">
<title>Platform.CPM2.core4</title>
<polygon fill="none" stroke="black" points="124,-765.5 124,-802.5 370,-802.5 370,-765.5 124,-765.5"/>
<text text-anchor="middle" x="209.5" y="-780.3" font-family="Times,serif" font-size="14.00">Platform.CPM2.core4</text>
<polyline fill="none" stroke="black" points="295,-765.5 295,-802.5 "/>
<text text-anchor="middle" x="332.5" y="-780.3" font-family="Times,serif" font-size="14.00">core4P1</text>
</g>
<!-- Platform.CPM2.core4&#45;&gt;Platform.CPM2.CPM2AXI -->
<g id="edge3" class="edge">
<title>Platform.CPM2.core4:core4P1&#45;&gt;Platform.CPM2.CPM2AXI:CPM1AXIP2</title>
<path fill="none" stroke="black" d="M370,-784C388.09,-784 388.45,-798.62 406,-803 511.16,-829.27 648.8,-910.53 657.56,-814.22"/>
<polygon fill="black" stroke="black" points="661.07,-814.14 658,-804 654.07,-813.84 661.07,-814.14"/>
</g>
<!-- C2 -->
<g id="node6" class="node">
<title>C2</title>
<polygon fill="none" stroke="black" points="169.5,-393.5 169.5,-440.5 324.5,-440.5 324.5,-393.5 169.5,-393.5"/>
<text text-anchor="middle" x="187.5" y="-413.3" font-family="Times,serif" font-size="14.00">C2</text>
<polyline fill="none" stroke="black" points="205.5,-393.5 205.5,-440.5 "/>
<text text-anchor="middle" x="265" y="-425.3" font-family="Times,serif" font-size="14.00">allocationHost</text>
<polyline fill="none" stroke="black" points="205.5,-417.5 324.5,-417.5 "/>
<text text-anchor="middle" x="265" y="-401.8" font-family="Times,serif" font-size="14.00">mappingHost</text>
</g>
<!-- R1 -->
<g id="node14" class="node">
<title>R1</title>
<polygon fill="none" stroke="black" points="16,-135 16,-205 88,-205 88,-135 16,-135"/>
<text text-anchor="middle" x="34" y="-166.3" font-family="Times,serif" font-size="14.00">R1</text>
<polyline fill="none" stroke="black" points="52,-135 52,-205 "/>
<text text-anchor="middle" x="70" y="-189.8" font-family="Times,serif" font-size="14.00">C3</text>
<polyline fill="none" stroke="black" points="52,-182 88,-182 "/>
<text text-anchor="middle" x="70" y="-166.8" font-family="Times,serif" font-size="14.00">C4</text>
<polyline fill="none" stroke="black" points="52,-159 88,-159 "/>
<text text-anchor="middle" x="70" y="-143.3" font-family="Times,serif" font-size="14.00">C2</text>
</g>
<!-- C2&#45;&gt;R1 -->
<g id="edge14" class="edge">
<title>C2&#45;&gt;R1:C2</title>
<path fill="none" stroke="black" d="M169.33,-415.42C146.39,-411 123.3,-401.87 108,-384 92.7,-366.13 110.54,-192.1 95.96,-154.24"/>
<polygon fill="black" stroke="black" points="98.45,-151.79 89,-147 93.4,-156.64 98.45,-151.79"/>
</g>
<!-- C1 -->
<g id="node7" class="node">
<title>C1</title>
<polygon fill="none" stroke="black" points="169.5,-261.5 169.5,-308.5 324.5,-308.5 324.5,-261.5 169.5,-261.5"/>
<text text-anchor="middle" x="187.5" y="-281.3" font-family="Times,serif" font-size="14.00">C1</text>
<polyline fill="none" stroke="black" points="205.5,-261.5 205.5,-308.5 "/>
<text text-anchor="middle" x="265" y="-293.3" font-family="Times,serif" font-size="14.00">allocationHost</text>
<polyline fill="none" stroke="black" points="205.5,-285.5 324.5,-285.5 "/>
<text text-anchor="middle" x="265" y="-269.8" font-family="Times,serif" font-size="14.00">mappingHost</text>
</g>
<!-- R2 -->
<g id="node15" class="node">
<title>R2</title>
<polygon fill="none" stroke="black" points="522,-135 522,-205 594,-205 594,-135 522,-135"/>
<text text-anchor="middle" x="540" y="-166.3" font-family="Times,serif" font-size="14.00">R2</text>
<polyline fill="none" stroke="black" points="558,-135 558,-205 "/>
<text text-anchor="middle" x="576" y="-189.8" font-family="Times,serif" font-size="14.00">C3</text>
<polyline fill="none" stroke="black" points="558,-182 594,-182 "/>
<text text-anchor="middle" x="576" y="-166.8" font-family="Times,serif" font-size="14.00">C6</text>
<polyline fill="none" stroke="black" points="558,-159 594,-159 "/>
<text text-anchor="middle" x="576" y="-143.3" font-family="Times,serif" font-size="14.00">C1</text>
</g>
<!-- C1&#45;&gt;R2 -->
<g id="edge18" class="edge">
<title>C1&#45;&gt;R2:C1</title>
<path fill="none" stroke="black" d="M294.88,-261.39C317.68,-249.76 345.4,-235.39 370,-222 438.37,-184.8 446.96,-155.7 522,-135 540.62,-129.86 564.24,-116.8 572.76,-124.4"/>
<polygon fill="black" stroke="black" points="569.48,-125.65 576,-134 576.11,-123.41 569.48,-125.65"/>
</g>
<!-- Platform.CPM1.core1 -->
<g id="node9" class="node">
<title>Platform.CPM1.core1</title>
<polygon fill="none" stroke="black" points="124,-488.5 124,-525.5 370,-525.5 370,-488.5 124,-488.5"/>
<text text-anchor="middle" x="209.5" y="-503.3" font-family="Times,serif" font-size="14.00">Platform.CPM1.core1</text>
<polyline fill="none" stroke="black" points="295,-488.5 295,-525.5 "/>
<text text-anchor="middle" x="332.5" y="-503.3" font-family="Times,serif" font-size="14.00">core1P1</text>
</g>
<!-- Platform.CPM1.CPM1AXI -->
<g id="node10" class="node">
<title>Platform.CPM1.CPM1AXI</title>
<polygon fill="none" stroke="black" points="406,-488.5 406,-581.5 710,-581.5 710,-488.5 406,-488.5"/>
<text text-anchor="middle" x="506" y="-531.3" font-family="Times,serif" font-size="14.00">Platform.CPM1.CPM1AXI</text>
<polyline fill="none" stroke="black" points="606,-488.5 606,-581.5 "/>
<text text-anchor="middle" x="658" y="-566.3" font-family="Times,serif" font-size="14.00">CPM1AXIP2</text>
<polyline fill="none" stroke="black" points="606,-558.5 710,-558.5 "/>
<text text-anchor="middle" x="658" y="-543.3" font-family="Times,serif" font-size="14.00">CPM1AXIP1</text>
<polyline fill="none" stroke="black" points="606,-535.5 710,-535.5 "/>
<text text-anchor="middle" x="658" y="-520.3" font-family="Times,serif" font-size="14.00">CPM1AXIP4</text>
<polyline fill="none" stroke="black" points="606,-512.5 710,-512.5 "/>
<text text-anchor="middle" x="658" y="-496.8" font-family="Times,serif" font-size="14.00">CPM1AXIP3</text>
</g>
<!-- Platform.CPM1.core1&#45;&gt;Platform.CPM1.CPM1AXI -->
<g id="edge4" class="edge">
<title>Platform.CPM1.core1:core1P1&#45;&gt;Platform.CPM1.CPM1AXI:CPM1AXIP1</title>
<path fill="none" stroke="black" d="M370,-507C406.97,-507 374.71,-562.31 406,-582 686.37,-758.42 733.75,-591.21 718.66,-553.97"/>
<polygon fill="black" stroke="black" points="720.75,-551.14 711,-547 716.04,-556.32 720.75,-551.14"/>
</g>
<!-- Platform.CPM1.OCM1 -->
<g id="node11" class="node">
<title>Platform.CPM1.OCM1</title>
<polygon fill="none" stroke="black" points="746,-488.5 746,-525.5 1002,-525.5 1002,-488.5 746,-488.5"/>
<text text-anchor="middle" x="834" y="-503.3" font-family="Times,serif" font-size="14.00">Platform.CPM1.OCM1</text>
<polyline fill="none" stroke="black" points="922,-488.5 922,-525.5 "/>
<text text-anchor="middle" x="962" y="-503.3" font-family="Times,serif" font-size="14.00">OCM1P1</text>
</g>
<!-- Platform.CPM1.CPM1AXI&#45;&gt;Platform.CPM1.OCM1 -->
<g id="edge5" class="edge">
<title>Platform.CPM1.CPM1AXI:CPM1AXIP3&#45;&gt;Platform.CPM1.OCM1:OCM1P1</title>
<path fill="none" stroke="black" d="M710,-500C729.74,-500 727.23,-519.88 746,-526 750.96,-527.62 910.47,-531.71 952.13,-528.82"/>
<polygon fill="black" stroke="black" points="952.8,-532.25 962,-527 951.53,-525.37 952.8,-532.25"/>
</g>
<!-- Platform.CPM1.CPM1AXI&#45;&gt;Platform.MainBus -->
<g id="edge7" class="edge">
<title>Platform.CPM1.CPM1AXI:CPM1AXIP4&#45;&gt;Platform.MainBus:MainBusP1</title>
<path fill="none" stroke="black" d="M710,-524C754.32,-524 709.69,-591.58 746,-617 749.95,-619.76 896.88,-616.58 936.98,-619.24"/>
<polygon fill="black" stroke="black" points="936.55,-622.72 947,-621 937.75,-615.83 936.55,-622.72"/>
</g>
<!-- Platform.CPM1.core2 -->
<g id="node12" class="node">
<title>Platform.CPM1.core2</title>
<polygon fill="none" stroke="black" points="124,-544.5 124,-581.5 370,-581.5 370,-544.5 124,-544.5"/>
<text text-anchor="middle" x="209.5" y="-559.3" font-family="Times,serif" font-size="14.00">Platform.CPM1.core2</text>
<polyline fill="none" stroke="black" points="295,-544.5 295,-581.5 "/>
<text text-anchor="middle" x="332.5" y="-559.3" font-family="Times,serif" font-size="14.00">core2P1</text>
</g>
<!-- Platform.CPM1.core2&#45;&gt;Platform.CPM1.CPM1AXI -->
<g id="edge6" class="edge">
<title>Platform.CPM1.core2:core2P1&#45;&gt;Platform.CPM1.CPM1AXI:CPM1AXIP2</title>
<path fill="none" stroke="black" d="M370,-563C388.09,-563 388.45,-577.62 406,-582 511.16,-608.27 648.8,-689.53 657.56,-593.22"/>
<polygon fill="black" stroke="black" points="661.07,-593.14 658,-583 654.07,-592.84 661.07,-593.14"/>
</g>
<!-- C3 -->
<g id="node18" class="node">
<title>C3</title>
<polygon fill="none" stroke="black" points="218.5,-175.5 218.5,-212.5 275.5,-212.5 275.5,-175.5 218.5,-175.5"/>
<text text-anchor="middle" x="236.5" y="-190.3" font-family="Times,serif" font-size="14.00">C3</text>
<polyline fill="none" stroke="black" points="254.5,-175.5 254.5,-212.5 "/>
<text text-anchor="middle" x="265" y="-190.3" font-family="Times,serif" font-size="14.00"> </text>
</g>
<!-- R1&#45;&gt;C3 -->
<g id="edge15" class="edge">
<title>R1:C3&#45;&gt;C3</title>
<path fill="none" stroke="black" d="M89,-194C129.77,-194 176.5,-194 208.31,-194"/>
<polygon fill="black" stroke="black" points="208.49,-197.5 218.49,-194 208.49,-190.5 208.49,-197.5"/>
</g>
<!-- C4 -->
<g id="node19" class="node">
<title>C4</title>
<polygon fill="none" stroke="black" points="218.5,-88.5 218.5,-125.5 275.5,-125.5 275.5,-88.5 218.5,-88.5"/>
<text text-anchor="middle" x="236.5" y="-103.3" font-family="Times,serif" font-size="14.00">C4</text>
<polyline fill="none" stroke="black" points="254.5,-88.5 254.5,-125.5 "/>
<text text-anchor="middle" x="265" y="-103.3" font-family="Times,serif" font-size="14.00"> </text>
</g>
<!-- R1&#45;&gt;C4 -->
<g id="edge16" class="edge">
<title>R1:C4&#45;&gt;C4</title>
<path fill="none" stroke="black" d="M89,-171C101.52,-171 166.74,-142.73 209.08,-123.77"/>
<polygon fill="black" stroke="black" points="210.58,-126.94 218.27,-119.64 207.71,-120.55 210.58,-126.94"/>
</g>
<!-- C6 -->
<g id="node21" class="node">
<title>C6</title>
<polygon fill="none" stroke="black" points="845.5,-152.5 845.5,-189.5 902.5,-189.5 902.5,-152.5 845.5,-152.5"/>
<text text-anchor="middle" x="863.5" y="-167.3" font-family="Times,serif" font-size="14.00">C6</text>
<polyline fill="none" stroke="black" points="881.5,-152.5 881.5,-189.5 "/>
<text text-anchor="middle" x="892" y="-167.3" font-family="Times,serif" font-size="14.00"> </text>
</g>
<!-- R2&#45;&gt;C6 -->
<g id="edge17" class="edge">
<title>R2:C6&#45;&gt;C6</title>
<path fill="none" stroke="black" d="M595,-171C680.97,-171 781.89,-171 835.34,-171"/>
<polygon fill="black" stroke="black" points="835.38,-174.5 845.38,-171 835.38,-167.5 835.38,-174.5"/>
</g>
<!-- R3 -->
<g id="node16" class="node">
<title>R3</title>
<polygon fill="none" stroke="black" points="522,-39.5 522,-86.5 594,-86.5 594,-39.5 522,-39.5"/>
<text text-anchor="middle" x="540" y="-59.3" font-family="Times,serif" font-size="14.00">R3</text>
<polyline fill="none" stroke="black" points="558,-39.5 558,-86.5 "/>
<text text-anchor="middle" x="576" y="-71.3" font-family="Times,serif" font-size="14.00">C4</text>
<polyline fill="none" stroke="black" points="558,-63.5 594,-63.5 "/>
<text text-anchor="middle" x="576" y="-47.8" font-family="Times,serif" font-size="14.00">C5</text>
</g>
<!-- C5 -->
<g id="node20" class="node">
<title>C5</title>
<polygon fill="none" stroke="black" points="845.5,-32.5 845.5,-69.5 902.5,-69.5 902.5,-32.5 845.5,-32.5"/>
<text text-anchor="middle" x="863.5" y="-47.3" font-family="Times,serif" font-size="14.00">C5</text>
<polyline fill="none" stroke="black" points="881.5,-32.5 881.5,-69.5 "/>
<text text-anchor="middle" x="892" y="-47.3" font-family="Times,serif" font-size="14.00"> </text>
</g>
<!-- R3&#45;&gt;C5 -->
<g id="edge19" class="edge">
<title>R3:C5&#45;&gt;C5</title>
<path fill="none" stroke="black" d="M595,-51C680.97,-51 781.89,-51 835.34,-51"/>
<polygon fill="black" stroke="black" points="835.38,-54.5 845.38,-51 835.38,-47.5 835.38,-54.5"/>
</g>
<!-- R4 -->
<g id="node17" class="node">
<title>R4</title>
<polygon fill="none" stroke="black" points="1038,-16.5 1038,-63.5 1110,-63.5 1110,-16.5 1038,-16.5"/>
<text text-anchor="middle" x="1056" y="-36.3" font-family="Times,serif" font-size="14.00">R4</text>
<polyline fill="none" stroke="black" points="1074,-16.5 1074,-63.5 "/>
<text text-anchor="middle" x="1092" y="-48.3" font-family="Times,serif" font-size="14.00">C5</text>
<polyline fill="none" stroke="black" points="1074,-40.5 1110,-40.5 "/>
<text text-anchor="middle" x="1092" y="-24.8" font-family="Times,serif" font-size="14.00">C7</text>
</g>
<!-- C7 -->
<g id="node22" class="node">
<title>C7</title>
<polygon fill="none" stroke="black" points="1146,-69.5 1146,-106.5 1203,-106.5 1203,-69.5 1146,-69.5"/>
<text text-anchor="middle" x="1164" y="-84.3" font-family="Times,serif" font-size="14.00">C7</text>
<polyline fill="none" stroke="black" points="1182,-69.5 1182,-106.5 "/>
<text text-anchor="middle" x="1192.5" y="-84.3" font-family="Times,serif" font-size="14.00"> </text>
</g>
<!-- R4&#45;&gt;C7 -->
<g id="edge20" class="edge">
<title>R4:C7&#45;&gt;C7</title>
<path fill="none" stroke="black" d="M1111,-28C1131.43,-28 1147.78,-44.89 1158.62,-60.75"/>
<polygon fill="black" stroke="black" points="1155.76,-62.77 1164.07,-69.34 1161.67,-59.03 1155.76,-62.77"/>
</g>
<!-- C3&#45;&gt;R2 -->
<g id="edge9" class="edge">
<title>C3&#45;&gt;R2:C3</title>
<path fill="none" stroke="black" d="M275.68,-206.49C352.44,-239.72 563.16,-320.86 575.44,-216.01"/>
<polygon fill="black" stroke="black" points="578.94,-216.18 576,-206 571.95,-215.79 578.94,-216.18"/>
</g>
<!-- C4&#45;&gt;R3 -->
<g id="edge10" class="edge">
<title>C4&#45;&gt;R3:C4</title>
<path fill="none" stroke="black" d="M275.68,-108.27C346.73,-111.2 532.53,-116.7 569.53,-96.05"/>
<polygon fill="black" stroke="black" points="572.47,-97.99 576,-88 567.01,-93.6 572.47,-97.99"/>
</g>
<!-- C5&#45;&gt;R4 -->
<g id="edge11" class="edge">
<title>C5&#45;&gt;R4:C5</title>
<path fill="none" stroke="black" d="M902.92,-58.47C955.58,-71.9 1066.24,-96.71 1088.17,-74.44"/>
<polygon fill="black" stroke="black" points="1091.49,-75.58 1092,-65 1085,-72.95 1091.49,-75.58"/>
</g>
<!-- C6&#45;&gt;R5 -->
<g id="edge12" class="edge">
<title>C6&#45;&gt;R5:C6</title>
<path fill="none" stroke="black" d="M902.92,-183.88C958.67,-208.18 1079.43,-253.22 1091.09,-193.11"/>
<polygon fill="black" stroke="black" points="1094.59,-193.27 1092,-183 1087.62,-192.65 1094.59,-193.27"/>
</g>
<!-- C7&#45;&gt;R5 -->
<g id="edge13" class="edge">
<title>C7&#45;&gt;R5:C7</title>
<path fill="none" stroke="black" d="M1164.07,-106.66C1155.19,-121.72 1140.39,-141.27 1121.13,-146.6"/>
<polygon fill="black" stroke="black" points="1120.43,-143.17 1111,-148 1121.38,-150.1 1120.43,-143.17"/>
</g>
</g>
</svg>
